<?xml version="1.0" encoding="UTF-8"?>
<svg id="Layer_1" xmlns="http://www.w3.org/2000/svg" version="1.1" viewBox="0 0 841.89 595.28">
  <!-- Generator: Adobe Illustrator 29.7.0, SVG Export Plug-In . SVG Version: 2.1.1 Build 138)  -->
  <defs>
    <style>
      .st0 {
        fill: #3c5caa;
      }

      .st1 {
        fill: #da6626;
      }

      .st2 {
        fill: #233f90;
      }
    </style>
  </defs>
  <path class="st2" d="M415.12,316.55c6.66,1.5,13.96,2.79,21.48,3.65v-75.4h-87.22v14.17c0,6.02,2.15,11.17,6.45,15.47s9.45,6.44,15.46,6.44h25.78c-1.93,10.96-5.8,20.19-11.6,27.5,10.53,3.22,20.19,6.01,29.64,8.16h0Z"/>
  <path class="st2" d="M287.31,264.77c-.43-3.65-.65-7.52-.65-11.38,0-22.34,4.94-40.17,15.25-53.7,10.1-12.46,24.06-18.91,41.46-18.91,13.32,0,24.06,2.8,32.22,8.6,5.37,4.08,9.45,8.59,12.24,13.32,4.09,7.73,10.31,11.59,18.91,11.59h29.21c-3.22-21.48-13.1-38.88-29.86-52.41-16.97-12.67-38.66-18.9-64.65-18.9-30.07,0-54.13,10.1-72.4,30.5-14.82,16.54-23.41,37.81-25.56,64.45,11.81,8.16,25.13,16.54,40.38,25.13,1.07.65,2.36,1.29,3.44,1.72h0Z"/>
  <path class="st2" d="M243.92,274.44c2.12,24.36,11.59,44.25,25.56,59.51,17.6,19.97,41.24,29.86,71.54,29.86,12.45,0,24.06-2.36,34.59-6.65,9.24-4.3,16.97-10.97,23.41-19.79,1.08-1.06,1.94-2.35,2.8-3.42l1.06,4.29.86,3.65c2.79,11.39,9.88,16.97,21.27,16.97h11.59v-23.83c8.18.42,16.54.21,24.92-1.08,4.09-.86,8.17-2.15,12.24-4.3,3.88-2.15,8.39-5.15,10.54-8.59,4.94-6.86,7.51-15.68,7.29-24.27,0-8.82-3.85-16.97-9.23-23.42-5.59-6.23-12.03-11.38-19.35-15.03,6.45,4.94,12.47,10.51,16.77,16.97,4.52,6.44,7.95,13.74,7.73,21.48,0,7.51-2.58,15.26-7.3,21.26-4.3,6.45-12.24,8.82-19.76,10.11-7.95,1.08-15.91,1.08-23.86.21v-.21c-7.73-.65-15.45-2.15-23.18-3.86-10.97-2.59-22.13-5.59-32.88-9.45-4.52-1.29-8.82-2.79-13.33-4.3-30.07-11.17-59.28-24.91-87.41-40.39-1.3-.85-.86-.56-3.88-2.35,0,0-25.85-11.85-32.43-17.8,0,0-1.14,6.4.43,24.45h0ZM289.18,282.5s70.55,35.15,83.05,37.69c0,0-37.04,11.2-56.87-1.11-12.2-7.57-24.46-13.52-26.18-36.59h0Z"/>
  <path class="st2" d="M458.41,262.87h0c0-5.02-4.07-9.09-9.09-9.09h0c5.02,0,9.09-4.07,9.09-9.09h0c0,5.02,4.07,9.09,9.09,9.09h0c-5.02,0-9.09,4.07-9.09,9.09Z"/>
  <path class="st2" d="M448.44,246.92h0c0-2.83-2.29-5.12-5.12-5.12h0c2.83,0,5.12-2.29,5.12-5.12h0c0,2.83,2.29,5.12,5.12,5.12h0c-2.83,0-5.12,2.29-5.12,5.12Z"/>
  <path class="st1" d="M545.36,364.48l133.54-215.5-132.45,113.99-38.85-62.97c-5.45-8.84-13.47-15.81-22.98-19.99l-70.62-31.04,131.36,215.5h0Z"/>
  <polygon class="st0" points="556.94 245.06 667.5 148.98 551.87 186.44 572.5 221.72 556.94 245.06"/>
  <path class="st2" d="M209.01,214.7h0c-.48-2.61-2.99-4.34-5.6-3.85h0c2.61-.48,4.34-2.99,3.85-5.6h0c.48,2.61,2.99,4.34,5.6,3.85h0c-2.61.48-4.34,2.99-3.85,5.6Z"/>
  <path class="st2" d="M217.6,205.47h0c1.47-.27,2.88.7,3.16,2.17h0c.27,1.47-.7,2.88-2.17,3.16h0c-1.47.27-2.88-.7-3.16-2.17h0c-.27-1.47.7-2.88,2.17-3.16Z"/>
  <path class="st2" d="M231.16,231.26h0c-.48-2.61-2.99-4.34-5.6-3.85h0c2.61-.48,4.34-2.99,3.85-5.6h0c.48,2.61,2.99,4.34,5.6,3.85h0c-2.61.48-4.34,2.99-3.85,5.6Z"/>
  <path class="st2" d="M189.15,242.62h0c-.48-2.61-2.99-4.34-5.6-3.85h0c2.61-.48,4.34-2.99,3.85-5.6h0c.48,2.61,2.99,4.34,5.6,3.85h0c-2.61.48-4.34,2.99-3.85,5.6Z"/>
  <path class="st2" d="M234.38,243.04l7.31-5.14-.84-2.71-11.16,4.61-11.34-6.91c-1.15-.6-1.33-2.18-.47-3.15l13.1-15.36c-1.05-2-2.62-2.99-5.3-1.8l-17.65,10.78c-1.12.79-2.51.81-3.65.21l-14.7-6.98c-2.29.08-4.33.34-5.16,2.11-.32,2.02.46,4.31,2.38,5.92l11.69,6.96c1.19.82,1.88,2.08,1.9,3.46l.06,20.91c.75,2.17,1.8,3.48,3.13,3.8l6.99-18.39c.38-1.11,1.77-1.72,2.89-1.23l12.25,5.59,1.83,10.52,2.2.63,1.76-9.23,2.78-4.6h0Z"/>
  <path class="st2" d="M263.23,428.36c-3.73,0-6.85-.8-9.37-2.42s-4.4-3.94-5.65-6.99c-1.25-3.05-1.88-6.73-1.88-11.02v-8.62c0-7.2,1.95-12.68,5.85-16.44,3.9-3.76,9.59-5.63,17.07-5.63,2.3,0,4.43.16,6.4.48,1.97.32,3.76.73,5.38,1.25,1.62.51,3.03,1.07,4.23,1.69l1.03,10.12c-1.94-.87-4.11-1.64-6.49-2.32-2.39-.68-5.13-1.02-8.22-1.02-4.5,0-7.79,1.02-9.89,3.05-2.1,2.03-3.14,5.21-3.14,9.52v8.05c0,3.22.76,5.71,2.28,7.47s3.89,2.64,7.11,2.64c1.43,0,2.68-.21,3.74-.63s1.94-.98,2.64-1.67c.7-.69,1.26-1.46,1.67-2.3v-9.35l1.57,3.53-9.43.04v-9.23h19.35v20.58h-11.73c-.38,1.76-1.03,3.34-1.94,4.73-.91,1.39-2.21,2.49-3.91,3.3s-3.93,1.21-6.69,1.21h0ZM275.88,427.28l.38-10.08h11.23v10.08h-11.61Z"/>
  <path class="st2" d="M307.19,427.28h-11.73v-50.62h11.73v50.62h0Z"/>
  <path class="st2" d="M332.1,428.36c-6.08,0-10.67-1.51-13.78-4.54-3.1-3.03-4.66-7.29-4.66-12.78v-4.94c0-5.57,1.56-9.89,4.67-12.97s7.7-4.62,13.76-4.62,10.63,1.54,13.74,4.62c3.1,3.08,4.66,7.4,4.66,12.97v4.94c0,5.49-1.55,9.75-4.64,12.78-3.09,3.03-7.68,4.54-13.76,4.54ZM332.1,419.12c2.17,0,3.83-.66,4.96-1.97,1.14-1.32,1.7-3.19,1.7-5.61v-5.94c0-2.55-.57-4.5-1.7-5.83-1.14-1.33-2.79-1.99-4.96-1.99s-3.83.67-4.96,1.99c-1.14,1.33-1.7,3.27-1.7,5.83v5.94c0,2.43.57,4.3,1.7,5.61s2.79,1.97,4.96,1.97Z"/>
  <path class="st2" d="M368.58,427.28h-11.65v-50.62h11.65v11.27l-.19,12.07.04,1.04v14.45l-.19,2.26.35,9.54h0ZM379.96,428.16c-2.25,0-4.14-.37-5.67-1.11-1.53-.74-2.76-1.79-3.68-3.16-.92-1.37-1.57-2.96-1.95-4.77h-3.03l2.8-7.89c.05,1.56.36,2.87.92,3.95.56,1.07,1.37,1.9,2.41,2.47,1.05.58,2.27.86,3.68.86,2.15,0,3.77-.63,4.87-1.9,1.1-1.27,1.65-3.16,1.65-5.69v-5.33c0-2.5-.54-4.38-1.63-5.63-1.09-1.25-2.7-1.88-4.85-1.88-1.2,0-2.29.23-3.28.69s-1.81,1.07-2.49,1.82c-.68.75-1.17,1.62-1.48,2.59l-2.64-5.4h3.22c.38-1.69,1.01-3.21,1.88-4.58.87-1.37,2.09-2.45,3.66-3.26,1.57-.8,3.57-1.21,6-1.21,4.39,0,7.72,1.44,9.98,4.31,2.26,2.87,3.39,7.18,3.39,12.93v4.6c0,5.8-1.14,10.18-3.41,13.14-2.27,2.96-5.72,4.45-10.35,4.45h0Z"/>
  <path class="st2" d="M409.89,428.16c-3.76,0-6.6-.95-8.55-2.84-1.94-1.89-2.91-4.58-2.91-8.08v-1.04c0-3.7,1.14-6.44,3.43-8.22,2.29-1.77,5.92-2.98,10.9-3.62l10.12-1.34.69,7.05-8.97,1.3c-1.81.23-3.09.65-3.83,1.27-.74.61-1.11,1.52-1.11,2.72v.27c0,1.15.37,2.06,1.11,2.74s1.93,1.02,3.56,1.02c1.43,0,2.66-.22,3.7-.65,1.03-.43,1.88-1,2.55-1.7.66-.7,1.16-1.49,1.49-2.36l1.65,4.75h-1.92c-.41,1.64-1.04,3.12-1.9,4.45-.86,1.33-2.09,2.38-3.7,3.14-1.61.77-3.72,1.15-6.32,1.15h0ZM433.42,427.28h-11.54l.35-9.43-.27-.58v-11.77l-.08-1.53c0-2.09-.61-3.64-1.84-4.64-1.23-1-3.28-1.49-6.17-1.49-2.53,0-4.93.32-7.2.96-2.27.64-4.42,1.37-6.44,2.18l1-9.08c1.2-.56,2.55-1.09,4.04-1.59,1.49-.5,3.15-.9,4.96-1.21,1.81-.31,3.76-.46,5.83-.46,3.3,0,6.05.38,8.28,1.15,2.22.77,4,1.85,5.33,3.26,1.33,1.4,2.29,3.08,2.87,5.04.59,1.95.88,4.11.88,6.46v22.73h0Z"/>
  <path class="st2" d="M452.46,427.28h-11.73v-50.62h11.73v50.62h0Z"/>
  <path class="st1" d="M488.87,427.28h-18.16l-13.41-48.98h12.42l9.62,40.05h.88l9.66-40.05h12.38l-13.37,48.98Z"/>
  <path class="st1" d="M512.93,386.05c-2.2,0-3.79-.5-4.79-1.51-1-1.01-1.49-2.37-1.49-4.08v-.27c0-1.71.5-3.07,1.49-4.06,1-1,2.59-1.49,4.79-1.49s3.72.5,4.73,1.49c1.01,1,1.51,2.35,1.51,4.06v.27c0,1.74-.51,3.1-1.51,4.1-1.01,1-2.59,1.49-4.73,1.49h0ZM518.8,427.28h-11.73v-37.67h11.73v37.67h0Z"/>
  <path class="st1" d="M540.03,428.2c-2.99,0-5.68-.26-8.09-.79s-4.46-1.13-6.17-1.82l-1-9.85c1.97.82,4.15,1.55,6.53,2.2,2.39.65,4.98.98,7.76.98,2.22,0,3.8-.24,4.73-.71.93-.47,1.4-1.21,1.4-2.2v-.15c0-.69-.24-1.26-.71-1.7-.47-.45-1.29-.85-2.45-1.21-1.16-.36-2.79-.78-4.89-1.26-3.14-.74-5.63-1.62-7.47-2.62-1.84-1.01-3.15-2.25-3.93-3.72s-1.17-3.21-1.17-5.23v-.31c0-3.73,1.33-6.52,3.98-8.37,2.66-1.85,6.57-2.78,11.73-2.78,2.91,0,5.53.27,7.85.8,2.32.54,4.28,1.18,5.86,1.92l1,9.16c-1.84-.82-3.89-1.49-6.15-2.03-2.26-.54-4.63-.8-7.11-.8-1.51,0-2.69.1-3.54.31-.86.2-1.46.5-1.8.88-.35.38-.52.86-.52,1.42v.11c0,.61.2,1.14.61,1.57.41.43,1.16.84,2.24,1.23s2.65.82,4.69,1.3c3.17.69,5.72,1.48,7.66,2.36,1.94.88,3.36,2.02,4.25,3.41.9,1.39,1.34,3.24,1.34,5.54v.35c0,4.06-1.37,7.08-4.1,9.06-2.73,1.98-6.92,2.97-12.57,2.97h0Z"/>
  <path class="st1" d="M587.05,398.96h-28.28v-9.2h29.32l-1.03,9.2ZM577.39,428.13c-3.35,0-6.01-.51-7.99-1.51s-3.4-2.52-4.27-4.54c-.87-2.02-1.3-4.51-1.3-7.47v-21.04h11.65v19.16c0,1.84.41,3.19,1.25,4.04.83.86,2.38,1.28,4.66,1.28,1.25,0,2.49-.14,3.72-.42,1.23-.28,2.34-.64,3.33-1.07l-1,9.7c-1.3.56-2.8,1.02-4.5,1.36-1.7.35-3.54.52-5.54.52h0ZM575.13,390.61h-11.15l-.04-9.73,11.61-1.11-.42,10.85Z"/>
  <path class="st1" d="M602.99,428.16c-3.76,0-6.6-.95-8.55-2.84-1.94-1.89-2.91-4.58-2.91-8.08v-1.04c0-3.7,1.14-6.44,3.43-8.22,2.29-1.77,5.92-2.98,10.9-3.62l10.12-1.34.69,7.05-8.97,1.3c-1.81.23-3.09.65-3.83,1.27-.74.61-1.11,1.52-1.11,2.72v.27c0,1.15.37,2.06,1.11,2.74s1.93,1.02,3.56,1.02c1.43,0,2.66-.22,3.7-.65,1.03-.43,1.88-1,2.55-1.7.66-.7,1.16-1.49,1.49-2.36l1.65,4.75h-1.92c-.41,1.64-1.04,3.12-1.9,4.45-.85,1.33-2.09,2.38-3.7,3.14-1.61.77-3.72,1.15-6.32,1.15h0ZM626.52,427.28h-11.53l.34-9.43-.27-.58v-11.77l-.08-1.53c0-2.09-.61-3.64-1.84-4.64-1.23-1-3.28-1.49-6.17-1.49-2.53,0-4.93.32-7.21.96-2.27.64-4.42,1.37-6.44,2.18l1-9.08c1.2-.56,2.55-1.09,4.04-1.59,1.49-.5,3.15-.9,4.96-1.21,1.81-.31,3.76-.46,5.83-.46,3.29,0,6.05.38,8.28,1.15,2.22.77,4,1.85,5.33,3.26,1.33,1.4,2.29,3.08,2.87,5.04.59,1.95.88,4.11.88,6.46v22.73h0Z"/>
  <path d="M333.79,440.3v14.3h-3.24v-14.3h3.24Z"/>
  <path d="M338.18,454.6v-14.3h3.77l2.97,5.24c.85,1.51,1.7,3.29,2.33,4.9h.06c-.21-1.89-.27-3.82-.27-5.96v-4.18h2.97v14.3h-3.39l-3.05-5.52c-.85-1.53-1.78-3.37-2.48-5.05l-.06.02c.08,1.89.13,3.9.13,6.23v4.31h-2.97Z"/>
  <path d="M357.16,443.02h-3.84v-2.71h10.99v2.71h-3.9v11.58h-3.24v-11.58Z"/>
  <path d="M376.12,448.55h-5.26v3.39h5.88v2.65h-9.12v-14.3h8.82v2.65h-5.58v2.97h5.26v2.63Z"/>
  <path d="M380.53,440.49c1.04-.17,2.59-.3,4.31-.3,2.12,0,3.61.32,4.62,1.12.85.68,1.32,1.68,1.32,2.99,0,1.82-1.29,3.08-2.52,3.52v.06c1,.4,1.55,1.36,1.91,2.67.45,1.61.89,3.48,1.17,4.03h-3.31c-.23-.4-.57-1.57-1-3.33-.38-1.78-1-2.27-2.31-2.29h-.98v5.62h-3.2v-14.1h0ZM383.74,446.64h1.27c1.61,0,2.57-.81,2.57-2.06,0-1.32-.89-1.97-2.38-1.99-.79,0-1.23.06-1.46.11v3.95h0Z"/>
  <path d="M394.7,454.6v-14.3h3.77l2.97,5.24c.85,1.51,1.7,3.29,2.33,4.9h.06c-.21-1.89-.27-3.82-.27-5.96v-4.18h2.97v14.3h-3.39l-3.05-5.52c-.85-1.53-1.78-3.37-2.48-5.05l-.06.02c.08,1.89.13,3.9.13,6.23v4.31h-2.97Z"/>
  <path d="M414.26,450.93l-1.02,3.67h-3.35l4.37-14.3h4.24l4.43,14.3h-3.48l-1.1-3.67h-4.09,0ZM417.88,448.51l-.89-3.03c-.26-.85-.51-1.91-.72-2.76h-.04c-.21.85-.42,1.93-.66,2.76l-.85,3.03h3.16Z"/>
  <path d="M427.43,443.02h-3.84v-2.71h10.99v2.71h-3.9v11.58h-3.24v-11.58Z"/>
  <path d="M441.13,440.3v14.3h-3.24v-14.3h3.24Z"/>
  <path d="M458.61,447.3c0,4.69-2.84,7.53-7.02,7.53s-6.72-3.2-6.72-7.27c0-4.29,2.74-7.49,6.96-7.49s6.79,3.29,6.79,7.23h0ZM448.28,447.49c0,2.8,1.32,4.77,3.48,4.77s3.44-2.08,3.44-4.86c0-2.57-1.23-4.77-3.46-4.77s-3.46,2.08-3.46,4.86h0Z"/>
  <path d="M462.32,454.6v-14.3h3.77l2.97,5.24c.85,1.51,1.7,3.29,2.33,4.9h.06c-.21-1.89-.27-3.82-.27-5.96v-4.18h2.97v14.3h-3.39l-3.05-5.52c-.85-1.53-1.78-3.37-2.48-5.05l-.06.02c.08,1.89.13,3.9.13,6.23v4.31h-2.97Z"/>
  <path d="M481.87,450.93l-1.02,3.67h-3.35l4.37-14.3h4.24l4.43,14.3h-3.48l-1.1-3.67h-4.09,0ZM485.5,448.51l-.89-3.03c-.25-.85-.51-1.91-.72-2.76h-.04c-.21.85-.42,1.93-.66,2.76l-.85,3.03h3.16Z"/>
  <path d="M494.05,440.3h3.24v11.58h5.68v2.71h-8.93v-14.3h0Z"/>
  <path d="M512.35,440.3h3.24v11.58h5.68v2.71h-8.93v-14.3h0Z"/>
  <path d="M524.78,440.3h3.24v11.58h5.68v2.71h-8.93v-14.3h0Z"/>
  <path d="M537.21,440.49c1-.17,2.4-.3,4.37-.3s3.41.38,4.37,1.15c.91.72,1.53,1.91,1.53,3.31s-.47,2.59-1.31,3.39c-1.1,1.04-2.74,1.51-4.65,1.51-.42,0-.81-.02-1.1-.06v5.11h-3.2v-14.1h0ZM540.41,446.98c.28.06.61.08,1.08.08,1.72,0,2.78-.87,2.78-2.33,0-1.32-.91-2.1-2.52-2.1-.66,0-1.1.06-1.34.13v4.22Z"/>
  <rect class="st2" x="247.29" y="446.21" width="52.01" height="1.23"/>
  <rect class="st2" x="573.89" y="446.82" width="52.01" height="1.23"/>
</svg>